<?xml version="1.0" standalone="no"?>
<!DOCTYPE svg PUBLIC "-//W3C//DTD SVG 20010904//EN"
 "http://www.w3.org/TR/2001/REC-SVG-20010904/DTD/svg10.dtd">
<svg version="1.0" xmlns="http://www.w3.org/2000/svg"
 width="1200.000000pt" height="1393.000000pt" viewBox="0 0 1200.000000 1393.000000"
 preserveAspectRatio="xMidYMid meet">

<g transform="translate(0.000000,1393.000000) scale(0.100000,-0.100000)"
fill="#000000" stroke="none">
<path d="M2497 13738 c-5 -220 -19 -286 -88 -418 -145 -280 -480 -475 -934
-545 -55 -9 -191 -18 -303 -22 l-202 -6 3 -3331 c3 -3622 -1 -3343 53 -3651
135 -759 487 -1551 982 -2205 347 -458 765 -855 1217 -1157 662 -441 1359
-690 2210 -790 189 -22 904 -26 1080 -5 455 53 775 122 1141 246 988 336 1831
983 2461 1889 240 347 469 782 610 1162 24 66 50 137 58 157 33 84 117 392
149 542 46 213 73 413 86 627 6 110 10 1335 10 3347 l0 3172 -127 0 c-534 1
-948 139 -1195 399 -87 91 -140 178 -173 285 -35 107 -45 187 -45 354 l0 142
-3494 0 -3494 0 -5 -192z m6907 -25 c13 -222 53 -364 145 -504 55 -84 177
-205 268 -267 251 -170 624 -272 998 -272 l125 0 -3 -3282 c-3 -3615 2 -3294
-62 -3650 -115 -633 -403 -1317 -806 -1914 -571 -845 -1367 -1484 -2289 -1836
-918 -351 -2015 -414 -3007 -173 -1176 286 -2182 1004 -2880 2055 -447 673
-715 1375 -820 2150 -16 115 -17 384 -20 3386 l-3 3261 182 6 c200 6 315 22
483 67 431 114 716 345 825 669 28 83 50 235 50 344 l0 87 3404 0 3403 0 7
-127z"/>
<path d="M2795 13573 c-38 -279 -165 -530 -358 -709 -238 -220 -590 -357
-1020 -396 l-137 -12 3 -3166 c2 -2937 4 -3173 20 -3280 79 -526 226 -989 469
-1474 640 -1279 1725 -2174 3030 -2496 187 -47 436 -91 653 -117 119 -14 230
-17 540 -18 409 0 517 8 815 56 1180 192 2191 810 2930 1794 455 605 785 1344
914 2045 59 322 56 120 56 3531 l0 3125 -137 13 c-449 40 -807 185 -1043 421
-167 166 -280 386 -319 615 -7 39 -14 80 -17 93 l-4 22 -3195 0 -3194 0 -6
-47z m3331 -669 l124 -117 0 -313 0 -314 35 0 35 0 0 276 c0 155 4 274 9 272
5 -1 77 -66 160 -143 l151 -140 0 -161 c0 -159 0 -162 23 -168 46 -12 46 -12
49 126 l3 132 158 -148 c147 -138 157 -150 157 -184 l0 -37 93 -38 c50 -21
130 -57 177 -80 78 -39 85 -45 88 -74 2 -24 11 -37 33 -50 22 -13 29 -25 29
-49 0 -17 7 -37 15 -44 8 -7 15 -25 15 -40 0 -15 9 -35 20 -45 11 -10 20 -24
20 -30 0 -22 110 -179 146 -210 59 -50 61 -122 4 -190 -7 -8 -9 -15 -5 -15 4
0 1 -10 -7 -22 -24 -37 -39 -114 -32 -160 10 -63 50 -146 95 -200 22 -27 76
-101 120 -165 44 -65 104 -152 134 -193 59 -82 166 -255 240 -390 168 -307
289 -625 328 -862 11 -70 24 -128 28 -128 4 0 43 24 88 54 l82 54 -43 24 c-24
14 -58 30 -75 38 -29 11 -46 39 -25 40 4 0 61 7 127 15 66 8 143 15 170 15
l50 1 -54 15 c-67 18 -361 165 -361 180 0 6 62 18 159 29 133 14 170 15 227 5
75 -13 146 -44 204 -90 32 -25 47 -30 94 -30 38 0 56 4 55 13 0 6 -17 59 -38
117 l-38 105 -39 -3 c-40 -3 -54 -9 -139 -58 -45 -26 -58 -29 -140 -28 -82 0
-100 4 -200 43 -60 24 -136 53 -167 65 -32 11 -58 27 -58 33 0 7 2 13 5 13 2
0 69 14 147 31 182 39 280 38 375 -5 35 -16 68 -35 74 -42 14 -17 119 -20 119
-4 0 11 -103 244 -118 268 -11 17 -107 -26 -141 -63 -75 -81 -183 -91 -403
-35 -76 19 -138 40 -138 45 0 6 62 35 138 65 130 51 142 54 227 54 77 1 98 -3
147 -26 50 -23 61 -25 100 -16 24 6 44 12 46 13 2 2 -18 44 -43 95 -28 55 -51
90 -58 87 -7 -3 -32 -13 -57 -23 -25 -10 -66 -36 -91 -59 -84 -74 -178 -83
-369 -35 -65 16 -128 30 -139 30 -13 0 -21 6 -21 18 0 17 25 29 208 94 112 40
207 41 291 3 56 -25 62 -26 115 -14 45 10 56 16 51 28 -10 26 -116 211 -121
211 -20 0 -87 -46 -108 -73 -14 -19 -48 -46 -75 -60 -70 -39 -141 -43 -294
-18 -70 12 -139 21 -152 21 -53 0 -20 29 98 87 67 34 140 66 162 72 63 17 158
13 218 -9 48 -18 57 -19 93 -6 21 8 38 18 37 24 -5 21 -105 172 -114 172 -24
0 -92 -44 -137 -89 -83 -83 -160 -96 -362 -61 -63 11 -127 20 -142 20 -57 0
-25 28 100 87 70 34 142 66 161 72 54 17 155 13 213 -9 49 -18 55 -19 105 -4
l53 15 -36 55 c-70 110 -87 134 -96 134 -23 0 -105 -51 -125 -79 -39 -52 -105
-83 -190 -89 -89 -6 -353 34 -353 53 0 17 244 132 309 146 62 13 143 6 201
-17 35 -14 47 -15 86 -4 24 7 47 16 50 21 6 10 -124 199 -141 206 -22 8 -97
-37 -156 -92 -40 -39 -71 -58 -109 -69 -71 -21 -98 -20 -272 6 -117 18 -148
26 -147 38 0 16 191 111 273 135 68 21 156 19 226 -5 61 -21 59 -21 158 15 10
4 6 15 -14 42 -51 70 -76 91 -121 104 -181 50 -525 419 -511 547 l3 29 92 -23
c291 -74 449 -226 483 -465 8 -58 15 -75 38 -94 15 -12 41 -46 57 -74 17 -28
33 -51 36 -51 14 0 18 64 8 108 -21 93 19 304 84 443 33 72 76 129 96 129 21
0 53 -134 59 -244 l5 -110 22 45 c24 47 68 99 83 99 17 0 55 -153 60 -240 8
-146 -43 -267 -147 -347 -38 -30 -52 -49 -65 -90 l-17 -53 68 -95 c37 -52 70
-95 73 -95 16 0 27 93 17 138 -28 134 74 470 167 549 l31 26 17 -58 c21 -68
38 -165 38 -217 l0 -37 38 41 c22 23 44 38 50 34 16 -10 52 -177 52 -245 l0
-61 47 47 46 48 24 -74 c13 -41 26 -107 30 -147 l6 -74 44 41 c26 23 49 37 54
32 25 -25 53 -245 41 -329 l-8 -62 45 47 c58 59 88 70 95 32 12 -67 16 -162 7
-226 -4 -38 -7 -72 -5 -74 2 -2 19 10 39 28 20 17 42 31 49 31 19 0 31 -124
23 -233 l-5 -79 26 25 c28 26 64 47 80 47 23 0 20 -212 -4 -329 l-7 -33 43 31
c24 17 52 31 63 31 19 0 20 -5 15 -110 -3 -60 -3 -110 1 -110 3 1 17 7 31 15
14 8 34 14 44 15 18 0 19 -6 13 -92 -4 -51 -15 -126 -25 -165 -10 -40 -18 -73
-18 -73 1 0 28 14 60 30 79 40 97 40 90 -2 -14 -84 -37 -186 -50 -217 -14 -33
-13 -33 9 -27 12 4 41 10 65 13 l43 6 -7 -29 c-4 -16 -20 -67 -35 -114 l-29
-85 28 -24 27 -23 -37 5 c-31 5 -40 2 -48 -14 -10 -17 -7 -19 29 -19 l39 0
-20 -72 c-11 -39 -29 -91 -39 -115 -10 -25 -19 -46 -19 -48 0 -2 23 -1 50 2
41 5 50 3 50 -10 0 -19 -56 -181 -76 -219 -14 -26 -13 -28 6 -28 26 0 25 -3
-8 -98 l-28 -79 300 -74 301 -75 0 -769 c0 -424 -4 -805 -8 -847 l-9 -78 -636
0 -637 0 -68 -55 c-37 -30 -68 -58 -68 -62 0 -4 10 -10 21 -13 20 -5 16 -11
-37 -61 -32 -30 -85 -73 -117 -95 -39 -26 -54 -40 -43 -42 28 -6 20 -17 -49
-81 -179 -163 -377 -242 -576 -227 -103 7 -224 44 -305 92 l-55 34 -112 -88
c-240 -190 -522 -374 -537 -350 -16 25 -9 36 49 69 132 75 513 347 512 367 -1
12 -106 92 -121 92 -31 0 -136 60 -170 96 -55 60 -76 102 -123 244 l-42 131
-108 -195 -108 -196 -1282 0 -1281 0 -95 170 -95 170 -305 2 -305 3 -8 100
c-18 247 -78 431 -204 628 -48 75 -175 248 -179 244 -2 -1 -4 -43 -5 -92 l-2
-90 32 3 32 4 -30 -61 c-17 -33 -31 -63 -31 -66 0 -3 32 -5 71 -5 l70 0 -35
-44 c-20 -23 -36 -46 -36 -50 0 -3 35 -6 77 -6 l77 0 -53 -54 c-29 -29 -49
-56 -44 -59 5 -3 37 -9 71 -13 34 -3 62 -9 62 -12 0 -4 -23 -30 -51 -58 l-51
-51 66 -14 c36 -7 66 -16 66 -19 0 -3 -20 -22 -45 -40 -51 -38 -49 -41 33 -60
l54 -12 -73 -41 -73 -40 67 -34 c37 -18 67 -35 67 -37 0 -2 -27 -13 -60 -25
-33 -12 -60 -25 -60 -29 0 -4 28 -22 63 -39 l62 -31 -50 -7 c-94 -13 -94 -12
-29 -71 l59 -53 -61 -1 c-33 0 -63 -3 -66 -6 -3 -3 14 -24 38 -46 25 -23 43
-43 41 -44 -2 -2 -29 1 -61 7 -31 7 -59 9 -62 6 -3 -3 7 -25 23 -49 16 -24 33
-49 37 -56 5 -7 -20 1 -54 18 -34 17 -64 29 -66 27 -2 -2 3 -23 11 -47 8 -23
15 -44 15 -46 0 -3 -23 7 -51 22 -28 14 -53 23 -56 20 -3 -3 -1 -22 4 -43 7
-32 26 -51 118 -126 134 -109 341 -247 463 -310 130 -67 303 -132 410 -153
l92 -18 0 -37 0 -37 -72 19 c-392 107 -661 264 -1001 581 -59 55 -109 99 -111
97 -2 -2 -7 -30 -12 -63 l-9 -59 -39 57 c-21 31 -43 59 -47 62 -4 2 -18 -19
-30 -47 -18 -42 -24 -48 -30 -33 -4 11 -17 41 -29 69 l-21 49 -28 -47 -28 -48
-27 63 -28 63 -38 -42 c-21 -22 -41 -38 -44 -35 -3 3 -6 34 -6 69 0 38 -4 63
-11 63 -6 0 -30 -14 -55 -30 l-44 -31 0 66 c0 36 -2 65 -4 65 -2 0 -25 -9 -51
-20 -26 -11 -49 -20 -52 -20 -2 0 -1 30 3 67 l7 66 -24 -7 c-13 -3 -37 -9 -53
-13 l-28 -6 7 44 c3 24 9 52 12 63 4 15 1 18 -18 13 -60 -14 -89 -18 -89 -14
0 2 7 24 15 47 19 53 19 66 1 51 -9 -8 -181 -10 -622 -9 l-609 3 -8 55 c-5 30
-11 409 -13 842 l-6 786 54 16 c29 8 168 43 308 77 236 58 252 63 221 74 l-32
11 42 47 c23 26 40 50 38 52 -2 2 -24 14 -47 28 l-44 25 42 25 42 25 -47 36
-47 36 48 20 c27 12 50 23 52 25 2 2 -12 18 -32 35 -39 35 -39 44 -2 54 14 3
37 11 52 16 l27 11 -38 39 -39 40 57 0 c31 0 57 3 57 6 0 17 -24 45 -35 40
-10 -3 -13 4 -12 29 1 19 8 37 15 40 6 2 12 11 12 20 0 11 -11 15 -42 16 -24
0 -65 4 -93 8 l-50 6 57 39 c33 22 62 35 69 31 7 -5 10 -3 7 6 -3 8 -15 15
-29 17 -49 6 -51 10 -24 49 14 21 25 41 25 45 0 4 -18 12 -41 18 l-41 11 19
22 c49 57 50 55 -3 78 l-48 22 44 39 c49 43 50 39 -15 82 -19 13 -18 14 15 31
19 10 37 19 39 21 2 2 -13 19 -35 38 l-39 34 48 12 c26 7 47 17 47 23 0 6 -12
23 -26 38 l-26 27 38 11 c22 6 45 11 52 11 18 0 15 9 -13 46 -14 18 -25 35
-25 37 0 2 21 0 47 -4 25 -5 48 -7 50 -5 2 2 -5 25 -14 52 l-19 49 49 38 c26
21 45 42 42 47 -3 5 -20 12 -38 15 -50 11 -51 15 -12 55 l37 38 -42 25 -42 25
51 28 52 29 -37 31 -37 32 44 22 c24 12 46 24 48 26 2 2 -11 15 -28 29 -17 15
-31 30 -31 35 0 4 20 13 45 20 25 7 45 15 45 17 0 3 -14 22 -30 43 -17 21 -30
40 -30 43 0 3 21 8 48 12 26 4 50 9 54 12 5 2 -1 22 -12 43 -11 22 -20 42 -20
45 0 4 19 4 41 0 l42 -7 -6 28 c-4 16 -10 40 -13 53 -8 26 -13 25 69 6 20 -6
26 -4 23 6 -2 8 -7 29 -10 48 -5 30 -4 33 15 28 25 -7 69 29 69 56 0 16 2 17
15 7 9 -7 18 -10 21 -7 7 6 -45 56 -58 57 -23 1 -2 20 39 35 27 10 50 20 52
22 3 2 -10 18 -28 37 l-33 34 52 17 c55 18 55 17 7 72 l-19 21 46 7 c25 4 49
11 51 16 3 4 -5 26 -19 48 -29 45 -24 51 50 51 l44 0 -15 36 c-18 42 -19 68
-4 59 13 -9 69 14 69 27 0 6 -14 23 -30 38 l-30 28 55 13 c30 7 55 16 55 20 0
4 -11 21 -25 37 l-25 30 50 12 c27 7 50 14 50 18 0 3 -11 20 -26 39 l-25 33
49 0 c27 0 51 3 55 6 3 3 -3 26 -13 50 l-19 44 60 0 c53 0 60 2 55 18 -3 9 -8
29 -12 44 l-6 28 42 -15 c23 -8 44 -15 47 -15 2 0 1 23 -3 51 l-7 51 41 -21
c56 -29 62 -27 62 19 0 22 2 40 5 40 3 0 24 -9 47 -21 33 -17 42 -18 49 -7 13
19 11 29 -7 50 -19 20 -16 22 49 33 l38 6 -21 33 -20 33 41 6 c52 7 55 11 35
41 -9 14 -16 28 -16 31 0 3 20 5 45 5 25 0 45 2 45 5 0 3 -7 22 -15 42 -8 19
-15 36 -15 38 0 1 21 -1 48 -6 26 -4 49 -5 52 -2 2 2 3 20 1 40 -2 31 -1 35
16 28 46 -19 53 -18 53 8 0 51 8 58 46 35 40 -23 38 -24 50 20 l9 32 36 -24
c40 -27 49 -25 49 10 0 35 15 36 39 3 l23 -31 27 41 28 41 18 -40 c10 -22 20
-40 23 -40 3 0 20 11 39 26 l33 25 0 -23 c0 -48 15 -55 61 -29 l42 24 -7 -42
-7 -43 33 7 c18 4 41 9 51 11 21 6 21 -2 2 -56 -8 -23 -15 -44 -15 -45 0 -2
28 -1 63 2 l62 6 -34 -36 -34 -36 24 -6 c13 -3 44 -9 69 -14 l45 -8 -42 -17
c-24 -10 -43 -21 -43 -26 0 -4 18 -15 40 -25 22 -10 40 -22 40 -26 0 -4 -16
-13 -35 -19 -19 -6 -35 -15 -35 -19 0 -3 16 -15 36 -26 l37 -20 -43 -8 -42 -9
38 -39 38 -39 -52 0 c-29 0 -52 -3 -52 -7 1 -5 14 -24 31 -43 l30 -35 -46 -5
-45 -5 26 -38 26 -39 -56 7 c-63 8 -65 5 -41 -51 15 -36 15 -36 -8 -30 -78 22
-76 23 -52 -43 16 -46 15 -47 -23 -27 -15 7 -37 16 -48 20 -21 6 -21 5 -13
-40 5 -26 7 -49 5 -51 -2 -3 -22 5 -45 16 -22 12 -43 21 -47 21 -3 0 -4 -20
-2 -44 3 -48 -5 -56 -59 -56 -33 0 -28 -19 14 -62 l37 -38 -52 0 c-29 0 -52
-3 -52 -8 0 -4 14 -24 31 -45 l30 -37 -65 0 -65 0 20 -46 c12 -25 18 -48 15
-51 -3 -3 -24 -1 -48 5 -23 6 -43 10 -45 9 -1 -2 9 -27 22 -56 14 -29 25 -55
25 -56 0 -2 -25 5 -57 16 -71 24 -71 24 -43 -6 19 -20 20 -25 7 -25 -13 0 -14
-5 -6 -32 5 -18 9 -34 9 -36 0 -1 -17 5 -37 13 l-38 16 33 -33 c17 -19 32 -37
32 -41 0 -4 -18 -7 -39 -7 -22 0 -42 -4 -45 -9 -3 -4 11 -27 30 -50 l36 -41
-49 0 c-74 0 -80 -9 -47 -65 l27 -47 -51 7 c-29 4 -52 4 -52 1 0 -4 14 -31 31
-61 17 -30 29 -55 27 -55 -1 0 -28 7 -58 15 -30 8 -56 12 -58 10 -2 -2 5 -29
17 -59 11 -31 17 -56 13 -56 -5 0 -30 7 -56 16 -26 9 -50 14 -53 10 -3 -3 -1
-23 5 -45 18 -58 17 -59 -28 -48 -22 6 -42 8 -45 5 -11 -10 15 -87 31 -96 12
-7 4 -12 -33 -22 -26 -7 -50 -15 -53 -17 -2 -2 16 -21 40 -42 l44 -38 -63 -12
c-69 -14 -68 -6 -13 -80 l23 -31 -50 0 c-28 0 -51 -2 -51 -5 0 -3 17 -28 37
-56 l37 -51 -63 7 c-35 4 -62 3 -60 -1 2 -5 16 -32 31 -60 l27 -51 -50 9 c-79
14 -83 11 -55 -49 18 -37 20 -50 10 -46 -8 3 -14 3 -14 0 0 -6 157 -106 171
-110 6 -1 19 23 29 53 9 30 31 82 48 115 17 33 62 138 101 234 66 162 127 280
177 341 48 59 112 163 203 333 54 100 129 227 168 283 38 55 98 144 133 198
46 72 93 126 180 209 65 62 139 142 164 179 51 75 106 187 106 216 0 11 6 25
14 31 7 6 17 42 21 79 4 37 11 70 16 73 5 3 10 35 12 72 2 57 5 68 25 78 12 7
20 19 17 26 -3 7 -8 19 -11 27 -6 15 204 126 354 187 82 33 82 33 82 70 0 34
9 45 158 182 l157 146 3 -129 c1 -72 6 -130 11 -130 5 0 23 3 40 6 l31 7 0
162 0 163 149 141 c82 77 151 141 155 141 3 0 6 -124 6 -275 l0 -275 35 0 35
0 0 313 0 313 126 117 c70 64 129 117 131 117 3 0 61 -52 129 -116z m-1320
-7785 c18 -20 19 -41 19 -344 0 -303 -1 -324 -19 -344 -27 -29 -117 -30 -146
-1 -19 19 -20 33 -20 343 0 379 -3 367 89 367 46 0 62 -4 77 -21z m270 13 c31
-20 34 -55 34 -360 0 -298 -1 -310 -21 -336 -18 -22 -28 -26 -75 -26 -41 0
-59 5 -74 20 -19 19 -20 33 -20 345 0 312 1 326 20 345 15 15 33 20 73 20 28
0 57 -4 63 -8z m280 0 c31 -20 34 -55 34 -360 0 -298 -1 -310 -21 -336 -18
-22 -28 -26 -75 -26 -41 0 -59 5 -74 20 -19 19 -20 33 -20 345 0 312 1 326 20
345 15 15 33 20 73 20 28 0 57 -4 63 -8z m294 -12 c19 -19 20 -33 20 -343 0
-311 -1 -324 -20 -345 -16 -17 -32 -22 -75 -22 -46 0 -56 4 -75 27 -20 26 -21
34 -18 351 3 371 -2 352 95 352 40 0 58 -5 73 -20z m284 -2 c14 -19 16 -69 16
-345 0 -310 -1 -324 -20 -343 -15 -15 -33 -20 -74 -20 -47 0 -57 4 -75 26 -20
26 -21 38 -21 336 0 374 -2 368 102 368 48 0 59 -4 72 -22z m280 0 c14 -19 16
-69 16 -345 0 -310 -1 -324 -20 -343 -15 -15 -33 -20 -74 -20 -47 0 -57 4 -75
26 -20 26 -21 38 -21 339 0 301 1 313 21 339 18 23 28 26 79 26 49 0 61 -4 74
-22z m278 5 c17 -15 18 -39 18 -345 0 -315 -1 -329 -20 -348 -29 -29 -119 -28
-146 1 -18 20 -19 41 -19 344 0 377 -3 365 93 365 38 0 61 -5 74 -17z m280 0
c17 -15 18 -39 18 -346 0 -383 4 -367 -88 -367 -97 0 -92 -18 -92 363 0 383
-4 367 88 367 38 0 61 -5 74 -17z m280 0 c17 -15 18 -39 18 -346 0 -382 3
-367 -87 -367 -40 0 -58 5 -73 20 -19 19 -20 33 -20 347 0 378 -4 363 88 363
38 0 61 -5 74 -17z m284 -4 c18 -20 19 -41 19 -344 0 -303 -1 -324 -19 -344
-27 -29 -117 -30 -146 -1 -19 19 -20 33 -20 343 0 379 -3 367 89 367 46 0 62
-4 77 -21z m-206 -133 c0 -14 -4 -28 -10 -31 -6 -4 -10 7 -10 24 0 17 5 31 10
31 6 0 10 -11 10 -24z m-280 -85 c0 -17 -4 -33 -10 -36 -6 -4 -10 8 -10 29 0
20 5 36 10 36 6 0 10 -13 10 -29z m-1970 -21 c0 -22 -4 -40 -10 -40 -5 0 -10
18 -10 40 0 22 5 40 10 40 6 0 10 -18 10 -40z m280 -89 c0 -50 -4 -93 -10 -96
-6 -4 -10 28 -10 89 0 57 4 96 10 96 6 0 10 -36 10 -89z m1410 54 c0 -19 -4
-35 -10 -35 -5 0 -10 16 -10 35 0 19 5 35 10 35 6 0 10 -16 10 -35z m-280 -70
c0 -43 -4 -75 -10 -75 -6 0 -10 32 -10 75 0 43 4 75 10 75 6 0 10 -32 10 -75z
m-840 5 c0 -47 -3 -60 -15 -60 -12 0 -15 13 -15 60 0 47 3 60 15 60 12 0 15
-13 15 -60z m560 -5 c0 -30 -4 -55 -10 -55 -5 0 -10 25 -10 55 0 30 5 55 10
55 6 0 10 -25 10 -55z m-280 5 c0 -29 -4 -40 -15 -40 -11 0 -15 11 -15 40 0
29 4 40 15 40 11 0 15 -11 15 -40z m-850 -60 c0 -27 -4 -50 -10 -50 -11 0 -14
83 -3 93 12 12 13 8 13 -43z m1690 -1 c0 -31 -4 -48 -10 -44 -5 3 -10 26 -10
51 0 24 5 44 10 44 6 0 10 -23 10 -51z m280 -29 c0 -27 -4 -50 -10 -50 -5 0
-10 23 -10 50 0 28 5 50 10 50 6 0 10 -22 10 -50z m-2250 -8 l0 -48 -112 -18
c-360 -55 -792 -154 -1101 -250 l-48 -15 -21 44 c-12 25 -20 46 -17 49 7 6
345 94 524 135 192 45 700 144 763 150 8 1 12 -15 12 -47z m2530 -37 c0 -25
-4 -45 -10 -45 -5 0 -10 20 -10 45 0 25 5 45 10 45 6 0 10 -20 10 -45z m520
-61 c170 -38 540 -132 548 -139 1 -1 -6 -23 -17 -48 l-20 -45 -97 29 c-132 39
-374 102 -514 134 -63 14 -125 28 -137 30 -20 5 -23 12 -23 51 l0 46 33 -7
c17 -4 120 -27 227 -51z m-4840 -747 c215 -142 429 -104 722 130 37 29 69 53
71 53 2 0 45 -40 95 -90 226 -220 384 -279 543 -201 35 17 121 78 189 136 69
57 128 104 131 105 3 0 39 -27 80 -59 202 -162 401 -227 573 -187 96 23 175
68 262 149 l75 70 104 -102 c143 -140 179 -156 340 -156 161 0 200 18 340 155
56 55 105 100 111 100 5 0 36 -27 69 -61 103 -104 203 -153 334 -165 155 -14
353 67 532 218 25 21 49 38 53 38 4 0 40 -29 80 -63 206 -183 305 -231 425
-206 112 23 211 88 363 237 l87 86 53 -43 c205 -163 341 -226 488 -225 143 2
249 56 397 204 l81 82 136 -112 136 -112 -30 -41 c-17 -23 -40 -55 -53 -71
l-23 -28 -65 52 c-35 29 -71 59 -80 67 -13 11 -25 5 -85 -43 -284 -228 -552
-231 -868 -11 l-80 55 -60 -55 c-151 -136 -329 -223 -461 -223 -131 0 -224 45
-422 205 l-31 26 -69 -46 c-306 -207 -606 -220 -849 -36 l-50 38 -59 -54
c-116 -105 -229 -147 -395 -147 -175 1 -299 47 -400 149 l-52 53 -67 -45
c-127 -88 -234 -123 -371 -123 -47 0 -114 7 -150 16 -79 18 -228 88 -321 149
l-69 46 -72 -60 c-98 -80 -179 -128 -262 -153 -165 -50 -356 15 -566 195 l-75
64 -70 -49 c-91 -64 -233 -134 -315 -154 -94 -24 -233 -15 -324 20 -84 32
-170 83 -248 148 l-59 49 -80 -67 c-45 -37 -84 -63 -87 -57 -4 5 -28 37 -54
70 l-47 60 137 111 136 112 86 -84 c47 -45 110 -99 140 -119z m879 -856 c95
-95 194 -171 270 -208 42 -20 75 -28 134 -31 74 -4 83 -2 150 31 40 20 116 73
171 119 149 126 144 122 165 107 10 -8 51 -39 92 -70 158 -120 290 -172 434
-173 149 0 264 51 392 177 l53 51 97 -95 c54 -53 114 -105 134 -117 62 -38
153 -55 253 -49 128 8 183 38 310 166 l100 100 80 -77 c232 -221 497 -212 814
28 51 39 95 70 98 70 4 0 36 -26 73 -58 192 -169 268 -212 376 -212 124 1 234
62 405 227 91 87 102 94 119 82 10 -8 47 -36 82 -64 35 -27 98 -71 141 -96
l78 -47 -76 -52 c-86 -60 -84 -60 -179 10 l-55 41 -72 -62 c-203 -175 -391
-245 -547 -205 -86 22 -185 75 -266 144 -37 31 -73 61 -80 66 -8 6 -35 -6 -82
-37 -213 -141 -433 -196 -608 -152 -75 19 -187 73 -249 120 l-47 37 -62 -60
c-108 -103 -215 -142 -392 -142 -170 0 -282 41 -390 142 l-64 59 -47 -36
c-244 -187 -526 -179 -842 24 l-81 53 -86 -69 c-164 -132 -296 -178 -435 -154
-115 21 -262 103 -408 228 l-48 42 -70 -49 c-38 -27 -75 -49 -82 -50 -13 0
-137 84 -147 100 -2 4 30 28 73 53 42 25 111 73 152 106 41 33 78 60 83 60 4
1 42 -34 86 -78z"/>
<path d="M8577 11260 c-10 -16 -45 -53 -77 -82 -41 -36 -64 -65 -74 -94 -16
-48 -20 -40 72 -162 62 -82 76 -80 71 6 -6 122 0 242 14 297 9 32 15 60 14 62
-2 1 -11 -11 -20 -27z"/>
<path d="M8864 10779 c-16 -17 -41 -38 -55 -46 -17 -10 -33 -36 -48 -76 l-21
-60 62 -95 c56 -85 63 -92 70 -71 5 13 6 36 2 52 -11 51 -6 182 11 252 8 37
14 69 12 71 -2 2 -17 -10 -33 -27z"/>
<path d="M8970 10494 c-39 -31 -59 -56 -68 -84 -13 -39 -13 -40 44 -135 31
-52 57 -95 58 -95 2 0 1 48 -2 108 -2 71 1 130 11 177 8 39 14 71 13 71 0 1
-26 -18 -56 -42z"/>
<path d="M9088 10207 c-60 -51 -61 -69 -15 -157 22 -41 44 -79 48 -84 4 -4 7
38 6 95 -1 57 2 121 6 142 4 20 4 37 0 37 -4 -1 -25 -15 -45 -33z"/>
<path d="M9256 10041 c-9 -10 -32 -27 -52 -37 -24 -13 -38 -30 -46 -56 -9 -32
-7 -44 18 -102 31 -71 44 -76 44 -16 0 40 32 155 56 203 17 31 5 36 -20 8z"/>
<path d="M9330 9764 c-101 -60 -96 -45 -53 -157 l37 -99 13 75 c7 42 24 106
38 143 14 37 24 68 23 69 -2 1 -28 -13 -58 -31z"/>
<path d="M9415 9484 c-76 -39 -77 -41 -45 -150 16 -53 31 -98 34 -101 3 -4 6
20 6 53 0 38 10 89 28 142 16 45 28 82 28 82 -1 -1 -23 -12 -51 -26z"/>
<path d="M2090 9460 c8 -5 22 -10 30 -10 13 0 13 1 0 10 -8 5 -22 10 -30 10
-13 0 -13 -1 0 -10z"/>
<path d="M2870 9345 c0 -2 5 -16 12 -30 13 -30 34 -33 41 -6 4 15 -2 22 -24
30 -16 5 -29 8 -29 6z"/>
<path d="M9203 9311 c-28 -4 -54 -9 -57 -12 -5 -5 176 -139 182 -134 2 2 -7
37 -19 79 -16 55 -26 76 -38 75 -9 -1 -39 -5 -68 -8z"/>
<path d="M9036 9252 l-60 -15 45 -12 c24 -7 61 -20 83 -29 l38 -17 -7 38 c-11
61 -6 59 -99 35z"/>
<path d="M9498 9241 c-80 -35 -85 -48 -62 -164 l18 -94 18 70 c10 38 33 102
52 141 19 39 34 71 33 72 -1 0 -28 -11 -59 -25z"/>
<path d="M2875 9220 c-17 -19 -17 -20 2 -20 12 0 23 7 26 15 9 23 -9 26 -28 5z"/>
<path d="M2885 9100 c-3 -5 1 -10 9 -10 9 0 16 5 16 10 0 6 -4 10 -9 10 -6 0
-13 -4 -16 -10z"/>
<path d="M8790 9048 c0 -36 11 -40 92 -36 l64 3 -78 31 -78 31 0 -29z"/>
<path d="M9169 9036 c-3 -3 -30 -12 -60 -20 -42 -11 -50 -16 -34 -21 11 -4 44
-18 73 -31 l53 -24 -7 33 c-10 45 -19 69 -25 63z"/>
<path d="M9513 8950 c-43 -17 -49 -55 -26 -174 6 -35 23 -16 23 26 0 15 11 57
25 93 25 67 23 73 -22 55z"/>
<path d="M8820 8811 c0 -17 4 -32 9 -35 4 -3 38 -3 75 1 l67 6 -73 28 c-40 16
-74 29 -75 29 -2 0 -3 -13 -3 -29z"/>
<path d="M9209 8796 c-3 -3 -29 -11 -57 -19 l-52 -13 55 -23 c31 -13 58 -21
61 -18 3 3 4 22 2 42 -2 20 -5 34 -9 31z"/>
<path d="M2890 8766 c0 -2 7 -6 15 -10 8 -3 15 -1 15 4 0 6 -7 10 -15 10 -8 0
-15 -2 -15 -4z"/>
<path d="M9586 8756 c-21 -7 -49 -25 -62 -42 -22 -26 -24 -39 -24 -129 l1
-100 24 30 c14 17 28 46 31 65 4 19 23 67 43 105 20 39 37 73 39 78 5 9 -3 8
-52 -7z"/>
<path d="M2890 8661 c0 -6 5 -13 10 -16 6 -3 10 1 10 9 0 9 -4 16 -10 16 -5 0
-10 -4 -10 -9z"/>
<path d="M8840 8600 c-9 -6 -150 -10 -347 -10 l-333 0 0 -60 0 -60 60 0 60 0
0 -60 0 -60 294 0 294 0 7 -29 c6 -27 9 -29 73 -35 37 -3 78 -9 92 -12 14 -3
-3 8 -36 24 -71 34 -324 221 -324 238 0 14 216 9 323 -8 92 -14 192 -65 251
-128 l47 -50 64 0 65 0 0 120 0 120 -74 0 c-57 0 -83 -5 -109 -20 -19 -11 -59
-25 -90 -30 -65 -12 -148 3 -242 45 -32 14 -58 25 -59 25 0 0 -8 -5 -16 -10z"/>
<path d="M2883 8583 c-22 -3 -33 -10 -33 -20 0 -13 10 -15 60 -10 33 3 60 3
60 0 0 -3 -8 -17 -19 -31 -10 -15 -24 -37 -30 -50 l-13 -24 75 4 c82 3 82 5
29 -54 -13 -14 -21 -31 -18 -37 5 -8 118 -11 362 -11 l354 0 0 60 0 60 60 0
60 0 0 60 0 60 -457 -2 c-252 0 -473 -3 -490 -5z"/>
<path d="M9542 8477 c-36 -36 -42 -49 -42 -84 0 -60 51 -72 63 -15 3 15 22 53
41 85 l35 57 -28 0 c-18 0 -40 -13 -69 -43z"/>
<path d="M9634 8323 c-80 -6 -101 -35 -125 -170 -10 -59 -19 -112 -19 -117 0
-19 29 18 35 44 8 38 70 132 129 198 26 28 44 51 39 50 -4 -1 -31 -3 -59 -5z"/>
<path d="M9145 8237 c33 -16 65 -33 72 -39 10 -8 13 -2 13 28 l0 39 -73 0 -72
0 60 -28z"/>
<path d="M8870 8103 c0 -10 -3 -28 -6 -40 -5 -19 -1 -23 33 -28 118 -20 227
-60 274 -101 25 -22 29 -17 29 31 l0 45 -45 0 c-57 0 -138 28 -214 74 -67 41
-71 42 -71 19z"/>
<path d="M9516 7988 c-33 -30 -38 -41 -51 -118 -8 -47 -15 -89 -15 -94 0 -22
42 32 65 83 14 31 40 74 57 96 17 22 36 46 41 53 7 9 1 12 -25 12 -25 0 -45
-9 -72 -32z"/>
<path d="M3095 7870 c3 -5 8 -10 11 -10 2 0 4 5 4 10 0 6 -5 10 -11 10 -5 0
-7 -4 -4 -10z"/>
<path d="M8800 7856 c0 -21 7 -26 51 -35 29 -6 54 -10 55 -8 6 5 -82 67 -95
67 -6 0 -11 -11 -11 -24z"/>
<path d="M9982 7805 c-10 -21 -9 -25 3 -25 9 0 15 10 15 25 0 14 -2 25 -3 25
-2 0 -9 -11 -15 -25z"/>
<path d="M2040 7759 c0 -5 5 -7 10 -4 6 3 10 8 10 11 0 2 -4 4 -10 4 -5 0 -10
-5 -10 -11z"/>
<path d="M9500 7748 c-14 -11 -35 -29 -48 -39 -15 -12 -29 -39 -37 -76 -30
-123 -11 -131 44 -19 17 34 49 84 72 109 38 44 39 47 17 47 -12 -1 -34 -10
-48 -22z"/>
<path d="M9076 7742 c5 -5 30 -26 57 -46 l47 -38 0 30 c0 17 3 37 6 46 5 14
-4 16 -57 16 -35 0 -59 -4 -53 -8z"/>
<path d="M1741 7676 c-51 -28 -50 -13 -51 -729 0 -584 2 -672 15 -698 19 -37
50 -49 121 -49 48 0 60 4 85 29 l29 29 0 687 0 687 -29 29 c-26 26 -36 29 -88
29 -32 -1 -69 -7 -82 -14z"/>
<path d="M10079 7661 l-29 -29 0 -676 c0 -502 3 -682 12 -701 17 -37 57 -55
123 -55 49 0 60 4 86 29 l29 29 0 687 0 687 -29 29 c-27 26 -36 29 -96 29 -60
0 -69 -3 -96 -29z"/>
<path d="M8759 7665 c-1 -8 -2 -20 -3 -26 -1 -6 32 -24 72 -39 39 -16 72 -27
72 -26 0 4 -129 106 -135 106 -3 0 -6 -7 -6 -15z"/>
<path d="M3056 7651 c-8 -13 21 -34 39 -27 25 9 18 36 -9 36 -14 0 -27 -4 -30
-9z"/>
<path d="M2070 7637 c0 -21 12 -28 27 -16 19 16 16 29 -7 29 -11 0 -20 -6 -20
-13z"/>
<path d="M4910 7268 l0 -342 -52 -53 -52 -53 1187 0 c1128 0 1187 1 1178 18
-5 9 -28 35 -50 57 l-41 39 0 338 0 338 -1085 0 -1085 0 0 -342z"/>
<path d="M3107 7525 c-5 -10 0 -15 14 -15 12 0 19 5 17 12 -6 18 -25 20 -31 3z"/>
<path d="M2080 7516 c0 -10 9 -16 21 -16 24 0 21 23 -4 28 -10 2 -17 -3 -17
-12z"/>
<path d="M9043 7477 c33 -31 60 -57 62 -57 1 0 5 12 8 28 3 15 8 34 12 43 5
13 -4 17 -49 23 -30 3 -63 9 -73 13 -10 3 8 -19 40 -50z"/>
<path d="M9426 7490 c-21 -16 -40 -31 -43 -33 -7 -8 -44 -150 -39 -154 9 -9
26 9 46 47 11 22 48 69 81 105 l61 65 -33 0 c-22 0 -48 -11 -73 -30z"/>
<path d="M9895 7470 c-39 -40 -37 -48 8 -31 15 6 26 20 30 38 3 15 4 29 3 30
-1 2 -20 -15 -41 -37z"/>
<path d="M8697 7458 c-8 -28 -2 -34 63 -64 l53 -24 -45 52 c-53 61 -63 67 -71
36z"/>
<path d="M3160 7409 c0 -5 5 -7 10 -4 6 3 10 8 10 11 0 2 -4 4 -10 4 -5 0 -10
-5 -10 -11z"/>
<path d="M8461 7402 c-1 -28 -50 -126 -98 -198 -30 -45 -34 -56 -23 -69 13
-15 122 -85 134 -85 3 0 6 24 6 53 0 43 -6 62 -28 93 -32 44 -31 67 1 59 21
-6 22 -3 19 57 -1 35 -4 74 -6 88 -3 23 -3 23 -5 2z"/>
<path d="M8958 7251 c16 -20 36 -47 45 -60 l16 -25 16 37 c20 49 19 57 -7 57
-13 1 -40 7 -60 14 l-38 14 28 -37z"/>
<path d="M9364 7261 c-39 -21 -52 -36 -71 -80 l-24 -54 53 45 c29 24 72 58 95
75 41 29 42 31 19 35 -15 3 -44 -5 -72 -21z"/>
<path d="M8617 7235 c-19 -39 -23 -34 75 -82 l68 -32 -56 67 c-31 37 -60 70
-63 75 -4 4 -15 -8 -24 -28z"/>
<path d="M3237 7174 c-9 -10 2 -24 18 -24 9 0 12 6 9 15 -6 16 -17 19 -27 9z"/>
<path d="M8281 7068 c-12 -24 -37 -65 -55 -93 l-32 -49 25 -22 c14 -11 76 -54
136 -94 130 -87 200 -156 240 -238 l29 -60 29 50 c16 27 27 51 25 51 -134 65
-175 113 -279 320 -44 89 -84 166 -88 170 -5 5 -18 -11 -30 -35z"/>
<path d="M9167 7075 c-24 -50 -20 -58 4 -12 11 22 19 41 17 43 -3 2 -12 -12
-21 -31z"/>
<path d="M8856 7039 c28 -30 57 -66 64 -79 l13 -25 12 30 c30 73 30 72 -25 84
-28 6 -65 18 -83 27 -29 15 -28 12 19 -37z"/>
<path d="M8512 7068 c-7 -7 -12 -15 -12 -20 0 -7 84 -68 94 -68 3 0 -10 23
-30 50 -20 28 -37 50 -38 50 -1 0 -7 -5 -14 -12z"/>
<path d="M3275 7060 c-9 -15 4 -30 26 -30 17 0 18 3 9 20 -12 22 -25 26 -35
10z"/>
<path d="M9250 6991 c-42 -6 -47 -9 -74 -61 -16 -30 -23 -50 -15 -44 8 6 42
32 77 58 34 26 62 49 62 52 0 2 -1 3 -2 2 -2 0 -23 -4 -48 -7z"/>
<path d="M9066 6905 c-26 -41 -44 -80 -40 -86 7 -12 35 27 80 114 38 73 13 56
-40 -28z"/>
<path d="M3356 6934 c-13 -33 -4 -42 22 -26 7 5 10 16 6 25 -8 21 -20 22 -28
1z"/>
<path d="M9745 6910 c-17 -18 -17 -20 -1 -20 9 0 19 7 23 15 9 25 -2 27 -22 5z"/>
<path d="M8153 6871 c-6 -10 -33 -44 -58 -76 -39 -47 -45 -59 -34 -70 29 -26
269 -184 269 -177 0 5 -4 12 -9 18 -6 5 -34 68 -64 139 -86 205 -83 200 -104
166z"/>
<path d="M8758 6792 c19 -37 36 -69 38 -70 6 -8 35 16 59 48 l25 35 -47 10
c-27 6 -62 19 -79 28 l-31 16 35 -67z"/>
<path d="M8922 6698 c-52 -77 -59 -94 -50 -111 9 -18 17 -10 74 79 35 54 64
102 64 105 0 4 -6 9 -13 12 -9 3 -36 -28 -75 -85z"/>
<path d="M2280 6515 c0 -304 4 -315 134 -315 36 0 68 5 71 10 3 6 -1 10 -10
10 -13 0 -9 9 14 37 17 21 31 40 31 43 0 3 -25 14 -55 24 l-54 19 44 35 c25
19 45 38 45 41 0 4 -21 17 -46 29 l-46 23 43 31 c24 17 46 33 48 35 3 2 -2 11
-11 20 -15 14 -19 14 -53 -7 l-37 -23 4 62 c3 68 3 69 -62 46 -23 -8 -44 -15
-45 -15 -1 0 4 26 11 58 17 73 18 72 -6 72 -19 0 -20 -7 -20 -235z"/>
<path d="M9034 6688 c-53 -85 -53 -87 -3 -46 24 20 68 50 97 68 28 17 52 34
52 36 0 2 -24 4 -54 4 l-53 0 -39 -62z"/>
<path d="M4790 6615 l0 -125 1205 0 1205 0 0 125 0 125 -1205 0 -1205 0 0
-125z"/>
<path d="M9680 6685 c-18 -19 -52 -47 -73 -62 l-39 -27 63 -13 c35 -6 67 -12
71 -12 7 -1 22 122 16 139 -2 6 -19 -5 -38 -25z"/>
<path d="M7953 6625 l-63 -74 33 -24 c17 -14 64 -44 102 -68 39 -23 88 -56
110 -73 21 -17 36 -24 33 -16 -4 8 -31 74 -61 145 -67 161 -79 185 -86 185 -3
-1 -34 -34 -68 -75z"/>
<path d="M8812 6506 c-13 -24 -46 -69 -73 -99 -47 -53 -59 -77 -40 -77 13 0
161 202 155 212 -10 16 -19 7 -42 -36z"/>
<path d="M9678 6516 c-15 -19 -53 -54 -83 -78 -41 -31 -51 -44 -38 -46 72 -11
72 -7 -6 -86 l-73 -73 23 -17 c16 -11 45 -16 87 -16 57 0 67 3 93 29 l29 29 0
146 c0 80 -1 146 -2 146 -2 0 -15 -15 -30 -34z"/>
<path d="M7815 6466 c-22 -23 -58 -56 -79 -72 l-39 -31 121 -92 c146 -111 221
-190 260 -274 30 -62 52 -144 52 -195 1 -15 10 -38 21 -51 l20 -25 107 108
107 107 -40 34 c-21 18 -55 36 -75 40 -166 29 -231 101 -360 398 -23 53 -45
97 -49 96 -3 0 -24 -20 -46 -43z"/>
<path d="M8874 6442 c-5 -4 -23 -25 -40 -47 -28 -39 -28 -39 -4 -24 14 9 46
28 73 43 26 15 47 30 47 32 0 7 -65 4 -76 -4z"/>
<path d="M8442 6413 c29 -59 52 -119 63 -166 13 -55 40 -101 56 -95 3 2 30 31
59 66 55 66 58 86 15 102 -14 5 -28 16 -31 24 -3 8 -26 19 -52 26 -26 6 -62
20 -80 31 -19 11 -32 16 -30 12z"/>
<path d="M7590 6268 c-22 -35 -40 -68 -40 -73 0 -6 43 -46 96 -90 53 -44 100
-88 106 -98 26 -49 14 4 -31 136 -54 158 -66 187 -82 187 -5 0 -27 -28 -49
-62z"/>
<path d="M8687 6205 c-21 -25 -36 -45 -34 -45 3 0 43 20 88 45 l84 45 -50 0
c-48 0 -53 -3 -88 -45z"/>
<path d="M8306 6153 c13 -38 24 -75 24 -83 1 -8 18 -34 39 -58 l38 -44 56 64
c31 35 57 68 57 75 0 17 -63 53 -92 53 -14 0 -52 13 -84 30 -32 16 -59 30 -60
30 0 0 10 -30 22 -67z"/>
<path d="M8526 6020 c-25 -27 -46 -52 -46 -55 0 -2 43 16 96 43 87 43 93 48
67 53 -58 13 -70 9 -117 -41z"/>
<path d="M8364 5849 c-26 -27 -46 -49 -43 -49 18 0 159 69 151 73 -46 29 -58
26 -108 -24z"/>
<path d="M7850 5859 c0 -2 7 -26 15 -53 8 -27 15 -69 15 -92 0 -38 6 -49 53
-99 l52 -56 75 70 c72 67 74 71 56 86 -11 8 -36 18 -55 21 -60 12 -118 41
-166 85 -25 23 -45 40 -45 38z"/>
<path d="M8185 5674 c-33 -30 -57 -54 -54 -54 4 0 44 17 90 38 l84 39 -30 15
c-30 16 -30 16 -90 -38z"/>
<path d="M1180 3379 c-63 -292 -118 -535 -121 -541 -4 -6 -189 -13 -524 -18
-284 -5 -519 -11 -521 -13 -3 -3 265 -323 595 -713 637 -752 647 -763 778
-815 49 -20 76 -24 178 -24 117 0 122 1 196 36 41 20 95 55 119 78 24 22 44
41 45 41 2 0 59 -42 128 -94 1484 -1108 3358 -1535 5202 -1185 950 180 1899
597 2666 1172 69 51 131 97 138 101 7 5 31 -10 60 -37 56 -52 103 -78 185
-102 80 -23 219 -17 299 14 134 52 139 58 782 816 331 391 601 712 599 714 -2
2 -238 7 -525 12 -287 4 -523 9 -524 11 -2 2 -56 244 -120 538 -64 294 -118
537 -120 538 -2 2 -240 -312 -529 -697 -290 -386 -530 -701 -534 -701 -4 0
-76 29 -160 66 l-153 65 -92 -74 c-480 -383 -970 -656 -1522 -847 -802 -277
-1730 -350 -2605 -204 -842 140 -1614 482 -2285 1012 -66 52 -125 99 -131 103
-6 5 -74 -19 -162 -56 -84 -36 -156 -65 -161 -65 -5 0 -244 315 -532 700 -288
384 -526 699 -529 699 -3 1 -57 -238 -120 -530z m655 -628 c272 -364 373 -506
364 -512 -7 -4 -149 -65 -316 -136 -166 -70 -303 -131 -303 -134 0 -4 18 -29
40 -55 22 -27 57 -80 77 -119 63 -120 50 -205 -39 -251 -16 -8 -56 -14 -95
-14 -123 0 -109 -12 -570 530 l-412 485 152 6 c84 4 240 7 348 8 l196 1 62
283 c33 155 69 317 78 360 13 61 19 75 29 65 6 -7 181 -240 389 -517z m8804
159 l76 -345 334 -7 c184 -4 341 -9 348 -10 8 -2 -87 -122 -229 -289 -134
-158 -317 -375 -408 -483 -191 -226 -218 -246 -329 -246 -191 0 -229 137 -93
337 22 32 47 65 56 72 9 7 16 19 16 25 0 6 -141 72 -314 146 -212 90 -312 138
-308 146 36 61 768 1021 771 1012 3 -7 39 -168 80 -358z m-759 -804 c201 -87
369 -161 373 -165 15 -14 -267 -254 -509 -433 -1258 -931 -2821 -1353 -4409
-1192 -1227 124 -2393 610 -3350 1397 -163 134 -256 220 -248 227 12 11 877
380 890 380 6 0 68 -43 138 -95 727 -543 1581 -888 2486 -1004 279 -36 429
-45 754 -44 334 0 536 14 808 53 912 133 1775 496 2476 1041 l74 57 76 -33
c42 -18 240 -103 441 -189z"/>
<path d="M2681 1803 c-52 -82 -119 -185 -148 -230 l-53 -82 44 -31 c25 -16 47
-30 49 -30 3 0 24 31 47 68 42 68 43 69 107 84 l64 16 -6 -152 -7 -151 61 -37
61 -38 2 201 3 201 143 35 144 35 -64 41 -63 40 -157 -40 c-87 -23 -158 -39
-158 -37 0 2 27 46 60 97 33 52 60 96 60 99 0 7 -77 58 -87 58 -5 0 -51 -66
-102 -147z"/>
<path d="M8933 1778 c-101 -62 -183 -116 -183 -121 0 -4 10 -23 23 -42 l23
-33 64 39 c36 21 68 39 71 39 4 0 60 -85 124 -190 64 -104 119 -190 121 -190
3 0 25 12 50 26 l45 26 -25 42 c-13 22 -67 111 -119 196 l-96 155 69 43 70 44
-23 39 c-12 21 -24 39 -27 39 -3 0 -87 -51 -187 -112z"/>
<path d="M3369 1535 c-149 -47 -250 -262 -189 -403 42 -96 146 -162 259 -162
113 0 185 52 243 176 73 156 32 289 -112 361 -79 39 -139 47 -201 28z m161
-115 c79 -40 94 -126 41 -234 -37 -75 -74 -107 -135 -113 -55 -7 -119 25 -143
70 -31 59 -15 154 40 230 46 66 124 84 197 47z"/>
<path d="M8364 1481 c-147 -69 -192 -213 -117 -372 74 -157 210 -213 354 -147
154 70 204 209 133 366 -74 166 -218 225 -370 153z m179 -89 c64 -43 113 -150
104 -229 -10 -95 -121 -153 -206 -108 -95 49 -149 219 -94 293 43 58 141 80
196 44z"/>
<path d="M3931 1299 c-16 -46 -14 -57 12 -65 12 -3 45 -15 73 -25 l51 -19 -73
-208 c-41 -114 -74 -212 -74 -218 0 -16 100 -45 106 -31 2 7 36 102 74 211 39
110 72 202 75 204 2 3 36 -7 75 -22 39 -14 73 -26 75 -26 2 0 10 20 18 45 9
25 15 45 13 45 -1 0 -91 32 -200 70 -109 39 -202 70 -206 70 -5 0 -13 -14 -19
-31z"/>
<path d="M7893 1281 c-23 -9 -45 -19 -49 -23 -6 -7 161 -494 175 -511 10 -10
101 22 101 36 0 14 -172 500 -179 508 -3 3 -25 -1 -48 -10z"/>
<path d="M7332 1113 c-116 -29 -142 -39 -138 -52 3 -9 33 -126 67 -261 34
-135 65 -248 68 -252 3 -4 27 -2 54 4 32 8 47 16 47 27 0 9 -11 59 -25 111
-27 105 -25 110 35 110 42 0 61 -12 162 -102 l77 -69 67 17 67 17 -74 69 c-41
38 -96 82 -123 97 -42 25 -45 30 -28 35 12 4 35 23 51 42 26 29 31 43 31 85 0
59 -17 96 -60 133 -43 36 -100 34 -278 -11z m212 -85 c24 -34 20 -75 -8 -93
-34 -22 -167 -59 -176 -48 -5 4 -15 34 -23 66 -12 43 -12 59 -4 62 45 16 128
33 159 34 27 1 41 -5 52 -21z"/>
<path d="M4469 883 c-90 -131 -164 -242 -164 -247 0 -5 24 -15 53 -21 l53 -12
34 53 c19 30 40 54 47 54 7 -1 56 -11 108 -23 103 -24 107 -28 109 -109 1 -42
5 -46 72 -63 46 -12 49 -12 49 6 0 26 -80 561 -85 570 -3 3 -22 9 -44 13 -22
3 -46 8 -54 11 -10 4 -63 -65 -178 -232z m206 -38 c7 -69 6 -75 -11 -75 -17 0
-77 14 -112 25 -8 3 7 34 45 91 65 98 65 98 78 -41z"/>
<path d="M6782 1010 c-106 -15 -195 -29 -197 -32 -2 -2 -1 -23 2 -47 l6 -43
51 6 c28 4 65 9 82 12 l31 6 27 -199 c39 -286 29 -257 88 -250 28 4 53 8 55
11 2 2 -9 100 -26 216 -17 117 -31 218 -31 225 0 7 29 16 76 23 41 5 78 12 80
15 3 2 2 23 -2 46 -8 49 15 48 -242 11z"/>
<path d="M5440 949 c0 -18 -7 -140 -16 -272 -18 -268 -20 -257 52 -257 l41 0
7 61 c3 34 6 81 6 104 l0 42 98 -4 c88 -4 101 -3 141 19 105 57 116 218 20
290 -26 20 -90 30 -261 43 l-88 6 0 -32z m218 -79 c69 0 106 -78 60 -127 -19
-20 -31 -23 -100 -23 l-78 0 0 28 c0 15 3 51 7 81 l6 53 36 -6 c20 -3 51 -6
69 -6z"/>
<path d="M6157 918 c-8 -24 -51 -148 -96 -276 -44 -128 -81 -235 -81 -238 0
-3 26 -4 57 -2 l57 3 20 61 19 62 106 4 c58 3 110 1 115 -3 6 -5 20 -32 32
-61 24 -58 39 -65 105 -51 l37 8 -118 265 -118 265 -60 3 -60 3 -15 -43z m117
-187 c20 -45 36 -86 36 -90 0 -8 -131 -24 -138 -16 -2 2 10 47 28 100 18 53
34 95 35 93 2 -2 20 -41 39 -87z"/>
</g>
</svg>
